<?xml version="1.0" standalone="no"?>
<!DOCTYPE svg PUBLIC "-//W3C//DTD SVG 20010904//EN"
 "http://www.w3.org/TR/2001/REC-SVG-20010904/DTD/svg10.dtd">
<svg version="1.0" xmlns="http://www.w3.org/2000/svg"
 width="640.000000pt" height="640.000000pt" viewBox="0 0 640.000000 640.000000"
 preserveAspectRatio="xMidYMid meet">
<metadata>
Created by potrace 1.14, written by Peter Selinger 2001-2017
</metadata>
<g transform="translate(0.000000,640.000000) scale(0.100000,-0.100000)"
fill="#000000" stroke="none">
<path d="M2 5333 c3 -1014 4 -1068 21 -1065 9 2 27 -4 39 -13 13 -8 33 -15 45
-15 25 0 29 -10 11 -28 -8 -8 -9 -12 -1 -12 6 0 13 6 15 12 6 16 168 -14 233
-42 22 -10 64 -21 92 -25 29 -4 55 -11 59 -16 3 -5 18 -9 33 -9 16 0 54 -11
85 -25 31 -14 63 -25 71 -25 9 0 23 -4 33 -9 27 -15 85 -38 112 -46 14 -4 41
-14 60 -22 19 -8 44 -19 55 -23 11 -4 47 -19 80 -33 33 -13 81 -28 105 -31 25
-4 65 -11 90 -16 25 -5 73 -14 108 -21 34 -6 65 -16 68 -20 3 -5 12 -9 21 -9
24 0 133 -44 133 -53 0 -5 -9 -11 -20 -14 -14 -4 -19 -11 -15 -23 6 -20 -2
-24 -70 -35 -104 -17 -259 -82 -377 -158 -61 -39 -213 -189 -213 -210 0 -7 17
-13 45 -14 50 -1 107 -13 207 -42 38 -10 104 -27 148 -36 44 -9 114 -25 155
-35 200 -51 281 -68 347 -73 40 -3 80 -10 90 -15 10 -6 55 -7 103 -3 65 5 85
9 86 21 1 8 2 43 2 77 2 54 5 63 25 69 38 13 51 10 69 -18 19 -29 37 -35 54
-18 15 15 44 2 44 -19 0 -9 5 -22 11 -28 7 -7 13 -22 14 -35 1 -13 3 -28 4
-34 2 -18 26 -24 126 -34 148 -13 217 -49 579 -296 17 -12 59 -53 94 -93 54
-60 67 -70 87 -65 39 10 152 -71 117 -84 -9 -3 3 -15 30 -34 54 -36 94 -54
144 -62 21 -4 50 -13 63 -20 l23 -13 -46 -38 c-55 -45 -57 -63 -22 -177 40
-127 79 -164 105 -99 7 14 26 38 44 53 115 94 149 119 154 114 3 -3 1 -31 -6
-62 -6 -32 -11 -80 -11 -108 0 -49 -12 -134 -70 -491 -16 -99 -34 -216 -40
-260 -12 -91 -29 -155 -42 -155 -5 0 -13 -11 -19 -24 -6 -13 -22 -29 -35 -35
-13 -6 -24 -18 -24 -26 0 -9 -4 -13 -10 -10 -5 3 -10 1 -10 -4 0 -6 -7 -11
-16 -11 -13 0 -15 -7 -9 -36 4 -24 3 -34 -4 -29 -7 3 -8 0 -5 -9 3 -9 11 -16
16 -16 5 0 7 -12 3 -29 -8 -38 44 -143 137 -273 124 -173 186 -209 366 -209
62 0 72 -3 61 -15 -6 -8 -20 -14 -30 -14 -10 0 -21 -5 -24 -11 -9 -14 -147
-79 -169 -79 -9 0 -15 -4 -12 -9 10 -15 -4 -39 -27 -46 -12 -3 -51 -10 -87
-15 -36 -4 -78 -13 -94 -19 -28 -11 -28 -13 -12 -29 22 -22 201 -24 261 -2 22
8 47 15 55 16 8 1 29 8 45 15 17 7 32 13 35 14 3 1 13 5 23 10 10 4 21 5 24 1
3 -3 12 2 18 11 11 15 13 15 24 -5 9 -18 8 -22 -10 -27 -17 -6 -20 -13 -15
-36 5 -24 2 -29 -14 -29 -11 0 -20 -4 -20 -10 0 -5 13 -10 28 -10 20 0 35 -9
51 -31 22 -29 22 -31 4 -45 -10 -7 -55 -32 -100 -55 -46 -23 -83 -45 -83 -49
0 -4 -9 -10 -20 -13 -11 -3 -20 -10 -20 -16 0 -7 29 -11 81 -11 67 0 86 4 112
22 18 12 34 25 37 29 3 3 15 9 27 13 12 4 43 27 70 51 26 25 51 45 56 45 4 0
7 5 7 11 0 12 40 48 55 49 10 0 62 55 92 98 10 14 26 33 36 44 9 10 17 25 17
33 0 9 9 15 25 15 14 0 28 1 33 2 8 3 35 -49 39 -77 12 -85 12 -128 -2 -148
-8 -12 -15 -16 -15 -9 0 6 -7 12 -15 12 -8 0 -15 -7 -15 -15 0 -8 7 -16 15
-16 28 -3 33 -4 41 -12 4 -4 -2 -16 -14 -27 -23 -22 -29 -54 -12 -65 6 -3 7
-17 4 -31 l-6 -24 560 0 560 0 7 38 c3 20 16 57 29 82 12 25 31 90 40 145 10
55 22 114 26 130 5 17 11 47 15 68 3 22 12 37 20 37 8 0 22 14 32 30 9 17 25
30 35 30 11 0 18 7 18 19 0 34 90 211 117 228 25 16 26 16 45 -7 11 -14 17
-33 15 -45 -35 -148 -40 -182 -41 -290 -1 -142 2 -150 129 -343 l80 -121 78 0
77 -1 0 1006 c0 991 0 1006 -20 1031 -25 32 -25 38 2 118 18 56 19 69 8 89 -7
15 -10 39 -6 63 3 21 9 71 12 111 6 61 4 72 -9 72 -17 0 -30 27 -21 42 3 5 12
7 20 4 12 -5 14 276 14 1929 l0 1935 -3200 0 -3200 0 2 -1067z m3268 49 c0 -4
15 -6 34 -4 29 3 34 1 40 -22 8 -31 34 -45 47 -25 8 12 11 12 18 -1 18 -29 79
-90 90 -90 6 0 11 -10 11 -21 0 -19 4 -20 34 -15 30 6 35 4 38 -14 4 -28 22
-26 26 2 5 35 22 47 22 16 0 -15 3 -33 6 -41 4 -11 -2 -16 -18 -19 -19 -2 -23
-9 -24 -43 -1 -22 2 -47 7 -56 7 -14 4 -17 -21 -15 -17 1 -30 -3 -30 -8 1 -18
26 -46 42 -46 8 0 23 -9 33 -20 10 -11 26 -20 36 -20 11 0 24 -9 31 -20 13
-21 68 -29 68 -10 0 6 7 10 15 10 8 0 15 7 15 15 0 8 -4 15 -10 15 -5 0 -7 7
-4 15 4 10 0 15 -14 15 -11 0 -23 7 -26 16 -5 12 -14 14 -37 9 -27 -6 -31 -5
-26 10 4 9 7 21 7 26 0 5 5 9 11 9 5 0 7 -4 4 -10 -8 -13 8 -13 40 2 19 8 31
8 51 -1 22 -10 25 -16 20 -41 -4 -23 -2 -30 10 -30 11 0 13 -4 5 -17 -11 -20
3 -53 23 -53 7 0 21 -9 31 -19 16 -19 16 -21 -3 -49 l-21 -29 21 -43 22 -43
-23 -18 c-27 -22 -57 -25 -64 -6 -3 6 -6 2 -6 -10 -1 -20 -7 -23 -38 -23 -21
0 -51 -7 -67 -15 -30 -16 -66 -12 -105 12 -16 11 -37 13 -70 8 -61 -8 -109 -8
-208 0 -71 6 -82 9 -88 28 -6 19 -8 20 -12 5 -2 -10 -10 -18 -17 -18 -22 0
-81 23 -88 34 -14 20 -8 36 12 36 13 0 20 7 20 19 0 11 12 29 28 40 l27 20
-24 1 c-32 0 -85 36 -106 72 -9 16 -20 26 -25 23 -10 -6 -40 45 -40 67 0 7
-21 27 -45 43 -25 17 -45 33 -45 37 0 9 -62 79 -114 129 -26 25 -52 40 -78 44
-47 8 -46 29 1 33 23 2 35 10 38 23 3 10 13 19 22 19 35 0 117 -30 150 -54 37
-28 99 -52 108 -42 7 6 -17 28 -83 79 -51 38 -54 47 -15 47 19 0 34 -8 44 -24
9 -13 28 -27 43 -30 23 -6 33 -1 61 28 25 26 49 38 96 49 76 18 87 19 87 9z
m-646 -283 c48 19 186 -57 186 -102 0 -8 12 -32 28 -53 27 -39 58 -131 47
-143 -4 -3 -32 -5 -64 -5 -45 1 -74 9 -131 38 -41 20 -82 36 -92 36 -26 0 -22
27 6 46 14 8 23 21 20 27 -7 18 -54 37 -91 37 -18 0 -33 4 -33 8 0 5 -11 14
-25 20 -24 11 -34 32 -16 32 6 0 36 16 68 35 34 21 61 31 66 26 5 -5 19 -6 31
-2z m-384 -339 c0 -5 -7 -10 -16 -10 -8 0 -12 5 -9 10 3 6 10 10 16 10 5 0 9
-4 9 -10z m182 -14 c4 -6 8 -18 8 -26 0 -8 7 -24 15 -34 8 -11 15 -27 15 -36
0 -19 44 -60 64 -60 7 0 19 -7 26 -15 7 -8 19 -15 28 -15 8 0 24 -7 33 -16 13
-11 49 -20 111 -25 123 -12 139 -5 98 39 -25 26 -23 26 24 7 20 -8 48 -17 63
-19 65 -8 95 -20 114 -47 26 -36 49 -28 49 17 0 38 6 40 57 19 50 -21 62 -18
33 8 -32 29 -70 77 -70 90 0 6 15 7 37 4 28 -5 53 -22 100 -69 35 -34 63 -65
63 -69 0 -4 -17 -3 -37 2 -62 14 -67 11 -39 -22 24 -28 25 -37 22 -102 -2 -40
-7 -80 -11 -89 -5 -14 -2 -18 13 -18 30 0 46 -24 32 -49 -10 -20 -13 -20 -39
-7 -27 14 -29 14 -58 -17 -17 -18 -28 -38 -26 -45 8 -20 -45 -89 -86 -113 -34
-20 -40 -20 -103 -9 -36 7 -73 10 -82 7 -10 -4 -19 -1 -22 8 -4 8 -15 15 -25
15 -10 0 -19 5 -19 11 0 8 -4 8 -13 1 -19 -16 -131 18 -135 41 -3 16 139 167
157 167 5 0 11 9 14 20 10 37 -28 31 -129 -19 -54 -27 -119 -57 -144 -66 -25
-9 -63 -23 -84 -31 -22 -8 -46 -12 -55 -8 -9 4 -24 6 -35 5 -15 -2 -18 2 -14
28 3 21 0 31 -9 31 -7 0 -15 11 -19 25 -4 18 -13 25 -30 25 -32 0 -74 21 -74
37 0 7 -4 13 -10 13 -5 0 -12 11 -16 25 -3 14 -13 25 -21 25 -11 0 -12 8 -7
35 6 34 5 35 -25 35 -17 0 -31 5 -31 10 0 6 -7 10 -15 10 -22 0 -18 38 5 50
11 6 23 22 26 36 4 14 9 23 12 20 3 -3 11 -1 19 5 15 13 18 49 3 49 -15 0 -12
37 5 70 12 24 23 30 62 35 27 3 62 10 78 15 35 10 87 2 97 -14z m180 -40 c20
-10 50 -30 65 -44 15 -14 48 -36 73 -49 52 -26 32 -30 -45 -9 -79 23 -125 42
-147 60 -11 9 -30 22 -44 28 -13 6 -24 19 -24 28 0 14 7 16 43 10 23 -3 59
-14 79 -24z m1296 -91 c13 -16 26 -23 36 -19 13 5 14 2 5 -24 -10 -29 -11 -29
-77 -27 -76 2 -134 15 -139 31 -4 13 101 62 134 63 12 1 30 -10 41 -24z
m-3263 5 c-3 -5 -11 -10 -16 -10 -6 0 -7 5 -4 10 3 6 11 10 16 10 6 0 7 -4 4
-10z m3375 -59 c0 -22 -40 -36 -55 -20 -7 7 -3 17 14 30 26 21 41 17 41 -10z
m-3270 -46 c0 -29 -34 -36 -44 -9 -8 21 1 34 25 34 14 0 19 -7 19 -25z m131 3
c-4 -13 -18 -24 -30 -26 -31 -5 -26 22 7 35 15 6 28 11 29 12 1 1 -1 -9 -6
-21z m4497 -56 c52 -7 92 -18 110 -30 15 -11 44 -23 64 -27 21 -4 48 -20 65
-37 15 -16 46 -39 68 -50 22 -11 47 -26 55 -33 8 -7 42 -27 75 -45 63 -35 180
-113 204 -138 8 -7 24 -17 35 -22 12 -4 48 -28 82 -52 52 -39 63 -53 83 -107
12 -33 26 -61 30 -61 11 0 44 -118 37 -136 -3 -7 4 -34 15 -60 14 -31 21 -65
20 -103 -3 -94 -5 -116 -14 -126 -36 -44 -76 -121 -82 -157 -12 -80 -13 -81
-55 -74 -32 5 -39 3 -43 -13 -3 -14 -11 -18 -26 -14 -12 3 -21 9 -21 14 0 5
-7 9 -15 9 -8 0 -15 5 -15 12 0 6 -8 4 -19 -6 -24 -22 -40 -14 -37 19 4 32
-24 50 -94 59 -30 4 -60 12 -66 17 -9 7 -20 6 -35 -3 -17 -10 -23 -10 -26 0
-3 6 -9 10 -13 7 -5 -3 -44 -1 -87 4 -50 6 -80 6 -84 0 -3 -6 -28 -2 -63 11
-71 27 -110 18 -53 -11 35 -19 37 -22 37 -70 0 -27 -5 -70 -11 -95 -9 -33 -9
-48 0 -58 18 -22 17 -75 -3 -89 -14 -10 -15 -17 -5 -45 19 -55 42 -38 56 41
16 87 23 99 64 104 18 2 43 12 54 23 12 11 24 20 28 20 3 0 34 13 69 30 57 26
60 30 33 31 -16 1 -22 3 -13 6 26 7 186 -34 268 -69 97 -42 227 -118 266 -157
31 -30 49 -77 34 -86 -4 -3 -10 9 -13 25 -6 29 -18 43 -72 89 -23 20 -84 51
-99 51 -3 0 -3 -11 0 -25 2 -14 -1 -35 -7 -46 -13 -25 -28 -24 -189 16 -58 15
-135 29 -172 32 -57 4 -72 2 -103 -17 -19 -12 -35 -25 -35 -30 0 -4 24 -11 53
-15 45 -6 126 -39 255 -103 19 -10 38 -25 43 -35 16 -28 -13 -31 -67 -7 -80
37 -127 51 -172 52 -72 1 -69 -15 13 -68 56 -35 136 -68 193 -78 32 -6 36 -1
33 34 -2 23 56 -48 79 -97 11 -23 20 -63 20 -88 0 -26 5 -45 11 -45 24 0 70
36 75 60 10 45 13 50 28 44 15 -6 65 73 103 166 23 56 32 41 12 -21 -46 -142
-168 -292 -247 -303 -11 -2 -19 -15 -22 -37 l-5 -34 -66 1 c-43 0 -80 7 -110
21 -89 41 -115 51 -158 63 -55 14 -119 54 -149 91 -28 35 -53 39 -45 8 3 -12
16 -40 28 -63 21 -39 24 -42 98 -57 96 -21 173 -58 227 -110 34 -33 41 -46 38
-71 -3 -30 -6 -32 -62 -43 -90 -18 -157 5 -240 83 -32 30 -53 42 -75 42 -34 0
-46 23 -36 69 6 26 2 30 -42 52 -37 19 -49 30 -51 51 -4 33 -35 45 -140 53
-42 4 -86 10 -97 15 -37 16 -154 40 -192 40 -33 0 -107 15 -168 35 -19 6 -20
2 -19 -72 0 -43 1 -88 2 -100 3 -38 57 -89 121 -113 45 -16 74 -36 113 -78 60
-64 53 -75 -28 -44 -64 26 -314 89 -384 98 -58 7 -110 28 -110 44 0 5 -12 20
-27 34 -34 32 -28 45 52 116 61 55 84 82 152 178 38 52 38 53 84 49 37 -3 57
2 104 27 31 18 57 36 57 41 -1 6 -21 13 -46 17 -24 3 -64 17 -88 30 -186 98
-293 149 -311 146 -16 -3 0 -14 56 -40 79 -38 187 -131 187 -162 0 -20 -40
-30 -165 -41 -69 -6 -102 -12 -114 -19 -6 -4 -18 -3 -28 2 -57 29 -94 37 -167
35 -74 -2 -82 -4 -110 -32 -28 -28 -29 -34 -19 -60 8 -22 8 -31 -1 -36 -6 -3
7 -2 29 1 22 3 43 11 47 17 5 9 10 9 19 0 6 -6 19 -9 28 -6 14 4 13 2 -1 -10
-10 -8 -18 -22 -18 -31 0 -9 -9 -25 -20 -36 -11 -11 -20 -26 -20 -32 0 -8 -7
-5 -15 6 -15 20 -15 20 -15 0 0 -21 -63 -60 -80 -49 -11 7 -33 -22 -26 -34 11
-17 -41 -94 -56 -84 -5 3 -12 -4 -15 -15 -3 -13 -16 -22 -39 -26 -43 -9 -47
-17 -30 -56 10 -25 11 -40 3 -61 -8 -20 -8 -43 0 -81 7 -34 7 -55 1 -59 -5 -3
1 -9 14 -13 17 -6 19 -9 8 -13 -21 -9 -37 -26 -34 -38 1 -6 5 -22 8 -37 4 -19
11 -26 21 -22 23 9 30 -25 9 -41 -11 -8 -22 -15 -25 -15 -12 0 -58 166 -63
225 -2 33 -10 92 -16 130 -13 79 -6 230 16 370 8 50 14 95 14 100 0 6 -30 11
-72 11 -93 0 -130 20 -163 89 -27 56 -46 169 -47 277 -1 65 4 85 44 178 25 58
49 120 53 138 10 46 22 48 39 7 8 -19 19 -35 23 -35 4 0 28 13 52 29 53 36 80
30 100 -22 18 -48 9 -67 -31 -67 -33 0 -105 -36 -94 -47 3 -3 1 -12 -5 -20
-17 -20 12 -56 65 -82 67 -31 80 -28 128 34 23 30 49 55 56 55 7 0 17 11 22
24 5 13 14 27 20 31 7 4 21 28 32 54 10 25 27 54 35 64 38 41 131 0 174 -78
35 -62 92 -135 101 -129 19 12 7 63 -21 86 -16 14 -32 36 -36 49 -17 55 -47
83 -132 124 -43 20 -42 40 7 114 44 65 42 65 152 82 68 10 80 10 103 -5 31
-20 31 -43 5 -120 -24 -66 -21 -88 3 -28 39 97 120 142 211 117 173 -47 264
-87 391 -170 166 -107 234 -198 221 -290 -4 -25 -5 -45 -3 -45 3 0 13 12 22
27 20 30 37 93 25 93 -4 0 -17 24 -30 53 -23 53 -69 97 -170 161 -58 36 -57
35 -40 47 11 7 5 9 -20 7 -22 -1 -63 10 -105 29 -168 75 -406 164 -490 183
-21 5 -57 2 -92 -6 -117 -27 -118 -23 -15 74 61 57 92 94 92 108 0 12 9 33 20
46 10 14 16 28 13 32 -3 3 -1 6 5 6 7 0 12 6 12 14 0 24 50 75 94 98 22 11 64
40 92 64 28 24 60 44 70 44 16 0 17 2 4 11 -12 9 -11 10 7 6 16 -3 31 4 50 23
54 53 168 100 244 100 20 0 52 7 70 15 35 16 56 15 207 -3z m-4582 -1 c-7 -11
-56 -21 -56 -11 0 13 13 20 37 20 13 0 22 -4 19 -9z m19 -31 c-3 -5 -11 -10
-16 -10 -6 0 -7 5 -4 10 3 6 11 10 16 10 6 0 7 -4 4 -10z m-60 -30 c-3 -5 -11
-10 -16 -10 -6 0 -7 5 -4 10 3 6 11 10 16 10 6 0 7 -4 4 -10z m150 0 c-3 -5
-14 -10 -23 -10 -15 0 -15 2 -2 10 20 13 33 13 25 0z m2915 -35 c62 -27 66
-43 22 -83 -22 -21 -33 -24 -71 -19 -26 3 -66 12 -89 20 -42 15 -112 57 -112
68 0 3 15 13 33 22 50 25 150 21 217 -8z m-2915 5 c-3 -5 -11 -10 -16 -10 -6
0 -7 5 -4 10 3 6 11 10 16 10 6 0 7 -4 4 -10z m45 0 c0 -5 -8 -10 -17 -10 -15
0 -16 2 -3 10 19 12 20 12 20 0z m-100 -30 c0 -5 -8 -10 -17 -10 -15 0 -16 2
-3 10 19 12 20 12 20 0z m50 -30 c0 -5 -2 -10 -4 -10 -3 0 -8 5 -11 10 -3 6
-1 10 4 10 6 0 11 -4 11 -10z m2587 -76 c72 -31 108 -49 153 -78 81 -52 110
-86 74 -86 -18 0 -154 67 -235 116 -31 19 -61 34 -67 34 -5 0 -12 7 -16 15 -8
21 42 20 91 -1z m-97 -35 c0 -5 6 -9 13 -9 7 0 30 -22 52 -50 22 -27 43 -50
47 -50 5 0 23 -14 41 -31 17 -18 50 -44 72 -58 73 -47 174 -143 156 -149 -6
-2 -18 -16 -26 -32 -13 -25 -21 -28 -87 -34 -60 -6 -74 -5 -84 8 -17 23 -31
20 -46 -11 -7 -15 -21 -29 -30 -31 -15 -3 -16 1 -7 26 20 58 -5 79 -98 79 -72
0 -87 7 -73 33 5 10 7 33 3 51 -4 23 -3 30 5 25 8 -4 10 -2 6 8 -3 8 2 26 11
40 18 27 17 74 -3 150 -6 22 -9 43 -7 47 6 9 55 -1 55 -12z m-746 -126 c-1
-27 -5 -76 -9 -109 l-7 -62 66 -52 c49 -39 75 -68 96 -109 17 -34 47 -72 74
-95 75 -61 54 -90 -42 -56 -31 11 -62 20 -68 20 -7 0 -46 16 -86 35 -63 29
-83 34 -129 31 -93 -7 -118 8 -99 58 10 29 -4 39 -33 24 -10 -5 -21 -7 -25 -4
-3 3 0 6 6 6 7 0 12 5 12 10 0 6 -11 10 -25 10 -20 0 -25 5 -25 25 0 15 6 25
14 25 26 0 46 30 46 71 0 34 5 42 38 63 20 13 50 38 66 55 17 17 34 31 38 31
9 0 17 5 62 45 16 14 30 25 30 25 1 0 1 -21 0 -47z m659 -239 c-3 -15 -20 -15
-26 0 -4 9 0 13 11 12 9 -2 16 -7 15 -12z m103 -11 c0 -12 7 -19 22 -21 12 -2
22 -8 22 -14 0 -6 -7 -7 -17 -3 -10 4 -28 10 -40 12 -29 7 -32 43 -4 43 12 0
18 -7 17 -17z m-55 -16 c-13 -13 -26 -3 -16 12 3 6 11 8 17 5 6 -4 6 -10 -1
-17z m59 -52 c0 -8 -7 -15 -16 -15 -8 0 -22 7 -30 15 -14 13 -12 15 15 15 21
0 31 -5 31 -15z m526 -65 c55 -21 98 -70 110 -125 12 -60 -5 -170 -31 -192 -8
-7 -13 -10 -10 -7 2 4 -2 18 -9 33 -7 14 -19 55 -26 91 -21 111 -57 159 -120
160 -19 0 -50 -9 -67 -20 -37 -22 -40 -20 -17 16 33 49 106 68 170 44z m-1546
-260 c0 -5 -4 -10 -10 -10 -5 0 -10 5 -10 10 0 6 5 10 10 10 6 0 10 -4 10 -10z
m-4 -67 c-10 -10 -19 5 -10 18 6 11 8 11 12 0 2 -7 1 -15 -2 -18z m36 -58 c3
-14 3 -25 0 -25 -14 0 -42 35 -42 52 0 28 36 5 42 -27z m-1295 9 c-3 -3 -12
-4 -19 -1 -8 3 -5 6 6 6 11 1 17 -2 13 -5z m1382 -84 c26 -16 63 -36 84 -45
38 -16 42 -35 7 -35 -21 0 -80 31 -80 43 0 4 -12 7 -28 7 -15 0 -38 7 -51 17
-23 15 -23 17 -6 30 24 17 21 18 74 -17z m3211 15 c0 -8 -6 -15 -14 -15 -17 0
-28 14 -19 24 12 12 33 6 33 -9z m-1446 -739 c14 -7 35 -25 47 -40 13 -17 30
-26 48 -26 24 0 27 -3 23 -28 -3 -23 8 -40 75 -107 82 -84 200 -181 237 -195
12 -4 28 -15 35 -24 7 -9 25 -16 38 -16 14 0 37 -7 51 -15 15 -8 43 -21 62
-30 19 -8 46 -22 60 -30 14 -8 73 -33 133 -56 59 -23 107 -44 107 -46 0 -2 -7
-11 -15 -20 -13 -12 -31 -14 -103 -8 -48 4 -105 11 -127 17 -48 12 -49 13
-100 23 -22 4 -53 14 -70 23 -16 8 -38 19 -47 23 -10 5 -28 9 -41 9 -13 0 -28
5 -34 11 -34 34 -42 -55 -10 -102 10 -13 17 -31 17 -40 0 -33 125 -134 207
-169 134 -55 147 -59 196 -60 30 0 47 -4 48 -12 3 -35 -4 -75 -15 -88 -7 -8
-16 -23 -19 -32 -4 -10 -15 -18 -25 -18 -10 0 -36 -9 -57 -21 -58 -31 -105
-37 -211 -29 -66 5 -99 12 -112 23 -10 10 -28 17 -40 17 -11 0 -24 5 -27 10
-3 6 -17 10 -30 10 -13 0 -27 5 -30 10 -3 6 -20 10 -36 10 -33 0 -74 26 -131
82 -20 20 -51 39 -68 43 -39 9 -120 86 -120 114 0 12 -9 30 -20 41 -11 11 -22
32 -25 47 -4 16 -10 36 -16 45 -5 10 -9 24 -9 32 0 8 -6 16 -14 19 -23 9 -25
77 -4 131 12 31 15 52 9 60 -5 6 -12 34 -15 63 -3 28 -15 68 -26 88 -16 29
-18 39 -8 55 10 15 10 22 0 32 -19 19 -15 25 21 31 107 19 133 29 121 49 -3 5
0 15 6 23 7 8 9 22 6 31 -4 10 1 25 10 35 20 23 16 22 48 5z m1306 -196 c0 -5
-5 -10 -11 -10 -5 0 -7 5 -4 10 3 6 8 10 11 10 2 0 4 -4 4 -10z m739 -61 c9
-26 7 -40 -9 -77 -11 -24 -30 -55 -43 -67 -12 -12 -27 -30 -33 -41 -10 -18
-12 -17 -27 11 -14 28 -25 41 -85 106 -20 23 -22 30 -13 48 11 19 21 21 96 21
69 0 85 3 85 15 0 26 18 16 29 -16z m-1543 -77 c13 -33 13 -33 -13 -30 -30 4
-49 28 -40 52 10 26 37 15 53 -22z m168 -7 c20 -14 45 -25 55 -25 25 0 70 -37
82 -67 10 -27 -3 -63 -23 -63 -7 0 -28 11 -47 24 -20 13 -64 29 -99 36 -87 18
-117 61 -70 101 29 26 58 24 102 -6z m-990 -100 c-4 -8 -10 -15 -15 -15 -5 0
-9 7 -9 15 0 8 7 15 15 15 9 0 12 -6 9 -15z m1553 -135 c-2 -11 -6 -23 -10
-26 -4 -4 -7 -14 -7 -22 0 -20 48 -7 78 20 30 29 29 7 -2 -46 -30 -51 -104
-108 -176 -135 -30 -12 -62 -25 -70 -29 -26 -14 -90 -14 -91 0 -3 27 3 44 24
66 18 19 28 22 62 17 34 -6 44 -3 62 17 12 13 29 41 39 63 15 36 68 94 86 95
5 0 7 -9 5 -20z m713 0 c0 -11 -4 -20 -10 -20 -5 0 -10 9 -10 20 0 11 5 20 10
20 6 0 10 -9 10 -20z m-1865 -1570 c-10 -11 -21 -17 -24 -14 -3 3 3 12 13 20
28 20 32 17 11 -6z m-35 -30 c0 -5 -4 -10 -10 -10 -5 0 -10 5 -10 10 0 6 5 10
10 10 6 0 10 -4 10 -10z m-50 -65 c0 -8 -4 -15 -10 -15 -5 0 -10 7 -10 15 0 8
5 15 10 15 6 0 10 -7 10 -15z"/>
<path d="M2810 5286 c0 -2 12 -12 28 -21 l27 -18 -19 21 c-17 20 -36 29 -36
18z"/>
<path d="M3520 5060 c0 -5 7 -10 16 -10 8 0 12 5 9 10 -3 6 -10 10 -16 10 -5
0 -9 -4 -9 -10z"/>
<path d="M2240 4626 c0 -2 6 -9 14 -15 10 -9 16 -8 26 4 11 13 8 15 -14 15
-14 0 -26 -2 -26 -4z"/>
<path d="M2370 4360 c0 -5 5 -10 10 -10 6 0 10 5 10 10 0 6 -4 10 -10 10 -5 0
-10 -4 -10 -10z"/>
<path d="M2398 4243 c7 -3 16 -2 19 1 4 3 -2 6 -13 5 -11 0 -14 -3 -6 -6z"/>
<path d="M2420 4215 c0 -9 9 -15 21 -15 18 0 19 2 9 15 -7 8 -16 15 -21 15 -5
0 -9 -7 -9 -15z"/>
<path d="M5185 3560 c3 -5 10 -10 16 -10 5 0 9 5 9 10 0 6 -7 10 -16 10 -8 0
-12 -4 -9 -10z"/>
<path d="M4557 3508 c-33 -15 -30 -29 9 -41 16 -4 38 -12 49 -17 11 -4 52 -18
90 -29 39 -12 114 -49 168 -82 53 -32 100 -59 102 -59 3 0 24 -12 46 -26 23
-14 48 -23 56 -20 8 3 23 1 34 -5 16 -8 25 -5 50 21 17 16 35 30 41 30 6 0 28
7 49 17 31 13 37 20 34 42 -2 14 -4 29 -4 32 -2 12 -64 79 -74 79 -5 0 -15 7
-22 16 -11 15 -12 15 -18 -5 -3 -12 -1 -18 4 -15 5 3 1 -10 -9 -28 -16 -28
-24 -33 -56 -33 -21 0 -40 3 -42 7 -3 4 -15 8 -27 8 -12 0 -47 14 -77 31 -102
57 -177 79 -280 84 -59 3 -105 0 -123 -7z"/>
<path d="M4436 3372 c-11 -11 -6 -42 7 -42 14 0 37 19 37 31 0 9 -37 18 -44
11z"/>
<path d="M4710 3269 c73 -60 247 -119 307 -104 l28 7 -33 29 c-18 16 -43 29
-56 29 -13 0 -43 7 -66 15 -23 8 -59 15 -80 15 -21 0 -57 7 -81 15 l-44 15 25
-21z"/>
<path d="M4105 2810 c-3 -5 1 -10 10 -10 9 0 13 5 10 10 -3 6 -8 10 -10 10 -2
0 -7 -4 -10 -10z"/>
<path d="M2470 3800 c0 -5 5 -10 11 -10 5 0 7 5 4 10 -3 6 -8 10 -11 10 -2 0
-4 -4 -4 -10z"/>
<path d="M6 4164 c-4 -11 0 -15 16 -12 12 2 23 9 26 16 6 18 -35 15 -42 -4z"/>
<path d="M165 4150 c-8 -13 4 -32 16 -25 12 8 12 35 0 35 -6 0 -13 -4 -16 -10z"/>
<path d="M142 3410 c-22 -9 -22 -10 -5 -51 9 -23 31 -65 49 -93 61 -94 60 -92
78 -77 17 14 36 13 131 -12 83 -21 145 -29 145 -18 0 18 -54 91 -67 91 -18 0
-16 -10 5 -26 9 -7 12 -14 5 -14 -6 0 -15 5 -18 10 -3 6 -16 10 -29 10 -12 0
-26 4 -32 10 -5 5 -33 10 -62 11 -40 2 -52 6 -48 16 3 7 -1 13 -9 13 -7 0 -16
14 -20 31 -4 17 -13 33 -20 36 -8 2 -11 11 -8 19 3 9 -1 14 -13 14 -13 0 -15
3 -7 11 15 15 77 4 93 -16 7 -8 20 -15 30 -15 10 0 23 -7 30 -15 7 -8 21 -15
31 -15 11 0 19 -4 19 -10 0 -5 9 -10 20 -10 38 0 9 28 -73 69 -70 35 -91 41
-142 40 -33 0 -70 -4 -83 -9z"/>
<path d="M450 3290 c0 -5 5 -10 10 -10 6 0 10 5 10 10 0 6 -4 10 -10 10 -5 0
-10 -4 -10 -10z"/>
<path d="M0 1948 l0 -989 33 22 c17 13 53 40 78 61 53 43 59 45 59 20 0 -23
-57 -92 -76 -92 -8 0 -14 -6 -14 -14 0 -8 -8 -17 -19 -21 -10 -3 -28 -14 -40
-24 -19 -16 -21 -29 -21 -111 l0 -92 29 5 c23 5 31 2 35 -11 8 -24 -9 -79 -39
-123 l-25 -39 0 -270 0 -270 497 2 498 3 23 43 c14 24 30 41 36 39 8 -3 11 4
8 24 -4 27 -2 29 31 29 51 0 63 21 33 57 -38 45 -44 103 -15 150 13 21 32 61
41 88 13 35 35 67 78 109 34 32 68 72 76 87 8 16 18 29 22 29 25 0 70 -130 92
-266 6 -34 17 -75 25 -90 8 -16 15 -34 15 -40 0 -6 9 -19 20 -29 11 -10 20
-23 20 -30 0 -7 9 -20 20 -30 11 -10 20 -24 20 -31 0 -7 11 -26 25 -42 14 -17
25 -38 25 -48 0 -12 3 -15 8 -7 9 15 37 -5 37 -27 0 -12 18 -16 94 -18 102 -3
111 1 111 51 0 25 -12 33 -42 28 -5 0 -8 12 -8 27 0 15 -5 33 -12 40 -9 9 -9
12 0 12 15 0 16 26 2 35 -6 3 -17 -1 -26 -9 -21 -22 -23 -21 -20 19 2 19 -1
35 -5 35 -5 0 -9 13 -9 28 0 15 -5 33 -12 40 -7 7 -9 12 -5 12 4 0 -1 8 -10
18 -10 10 -21 14 -24 9 -13 -19 -41 2 -37 28 3 15 0 26 -9 29 -17 7 -12 54 8
67 10 6 10 9 1 9 -7 0 -18 12 -25 27 -6 16 -17 34 -24 41 -7 8 -11 17 -8 22 3
5 -6 21 -19 35 -14 15 -22 33 -19 41 3 8 1 14 -5 14 -5 0 -12 9 -15 21 -5 20
-5 20 13 4 10 -9 20 -13 23 -8 6 10 2 43 -7 65 -4 9 -5 22 -1 28 3 5 -1 13 -9
16 -9 3 -16 10 -16 16 0 5 5 6 11 2 7 -4 10 -1 7 7 -3 8 -13 13 -22 11 -13 -2
-16 2 -12 15 3 10 -1 29 -9 43 -8 14 -19 35 -24 47 -5 12 -23 24 -40 28 -46
10 -53 25 -40 81 25 111 34 129 83 179 28 28 49 53 48 58 -1 4 5 7 13 7 9 0
34 18 56 40 23 22 45 38 50 34 5 -3 8 -2 7 3 -3 10 143 156 286 287 53 48 95
91 92 93 -6 6 -166 -110 -247 -179 -35 -31 -62 -46 -72 -43 -24 10 -8 46 48
110 81 94 86 105 45 105 -37 0 -40 23 -15 96 37 103 32 117 -23 66 -16 -15
-55 -47 -86 -71 -31 -24 -67 -55 -79 -67 -12 -13 -25 -24 -30 -24 -4 0 -16 -9
-27 -20 -11 -11 -24 -20 -28 -20 -9 0 -11 43 -2 50 12 10 98 155 105 178 4 15
2 22 -8 22 -8 0 -27 10 -41 21 -22 17 -25 24 -14 31 9 6 8 8 -7 6 -11 -2 -28
-15 -37 -30 -16 -26 -48 -39 -48 -20 0 12 -99 42 -106 31 -3 -5 -13 -9 -22 -9
-19 0 -62 -41 -62 -59 0 -6 -9 -11 -20 -11 -17 0 -19 4 -14 28 4 15 9 31 12
37 15 25 8 45 -15 45 -13 0 -22 -4 -18 -9 9 -16 -15 -24 -31 -11 -11 10 -11
16 -3 26 6 8 8 21 5 30 -5 13 -9 14 -21 4 -8 -6 -19 -9 -25 -5 -5 3 -22 -7
-36 -24 -29 -35 -36 -37 -58 -16 -8 8 -19 15 -25 15 -18 0 -12 19 8 30 11 5
19 18 19 28 0 9 0 22 2 27 6 25 -2 43 -22 50 -22 7 -22 8 7 15 34 9 25 13 -22
10 -18 -1 -33 3 -33 9 0 7 -22 11 -53 11 -41 0 -55 4 -64 19 -11 17 -9 20 10
24 l22 4 -22 8 c-26 8 -28 16 -11 33 9 9 9 12 0 12 -7 0 -12 6 -12 14 0 15
-124 51 -141 40 -6 -3 -9 -15 -6 -25 8 -30 -23 -40 -80 -29 -76 16 -78 17 -76
29 4 16 -31 48 -46 43 -7 -2 -21 5 -32 17 -11 12 -24 21 -29 21 -6 0 -10 7
-10 15 0 8 -7 15 -14 15 -8 0 -27 11 -42 25 -25 23 -60 35 -51 18 2 -5 -12
-24 -30 -43 l-34 -35 7 45 c4 25 11 51 17 58 6 8 12 50 15 95 l3 82 -45 48
c-25 26 -49 49 -53 50 -4 1 -7 7 -7 14 1 6 -16 15 -38 18 -29 5 -42 13 -48 31
-5 13 -13 24 -17 23 -22 -4 -37 2 -26 9 15 10 -15 46 -45 54 l-22 6 0 -990z
m585 332 c-3 -5 -15 -10 -26 -10 -10 0 -19 5 -19 10 0 6 12 10 26 10 14 0 23
-4 19 -10z m105 -36 c0 -19 -14 -17 -34 5 -13 15 -14 20 -4 24 16 5 38 -11 38
-29z m298 -102 c2 -7 -3 -12 -12 -12 -9 0 -16 7 -16 16 0 17 22 14 28 -4z"/>
<path d="M645 2380 c3 -5 14 -10 23 -10 15 0 15 2 2 10 -20 13 -33 13 -25 0z"/>
<path d="M640 2340 c0 -5 5 -10 10 -10 6 0 10 5 10 10 0 6 -4 10 -10 10 -5 0
-10 -4 -10 -10z"/>
<path d="M1843 1763 c4 -3 2 -12 -4 -20 -14 -16 3 -17 19 -1 17 17 15 28 -5
28 -9 0 -13 -3 -10 -7z"/>
<path d="M1990 1279 c-26 -12 -67 -21 -98 -21 -47 -1 -53 -3 -49 -19 3 -11 1
-19 -3 -19 -4 0 -7 -14 -6 -31 1 -18 -2 -35 -8 -40 -6 -5 -27 -22 -46 -39 -19
-16 -37 -30 -41 -30 -12 0 -5 -50 8 -54 6 -3 19 4 29 15 9 10 30 19 46 19 21
0 31 6 35 20 3 10 17 25 32 31 14 6 43 38 64 70 20 33 44 59 53 59 9 0 27 9
41 20 14 11 29 17 34 14 5 -3 6 2 3 10 -8 22 -40 20 -94 -5z"/>
<path d="M1680 1020 c0 -5 5 -10 11 -10 5 0 7 5 4 10 -3 6 -8 10 -11 10 -2 0
-4 -4 -4 -10z"/>
<path d="M1630 444 c0 -8 5 -12 10 -9 6 3 10 10 10 16 0 5 -4 9 -10 9 -5 0
-10 -7 -10 -16z"/>
<path d="M4017 274 c-8 -8 1 -24 14 -24 5 0 9 7 9 15 0 15 -12 20 -23 9z"/>
<path d="M2183 55 l-56 -55 40 0 c27 0 46 6 58 20 22 25 33 25 65 0 18 -14 40
-19 80 -19 46 0 52 2 36 12 -10 7 -48 31 -85 54 -36 24 -70 43 -74 43 -5 0
-33 -25 -64 -55z"/>
<path d="M4505 20 c-8 -13 -1 -24 14 -19 6 3 7 10 2 18 -6 10 -10 10 -16 1z"/>
</g>
</svg>
